<?xml version="1.0" encoding="UTF-8"?>
<svg width="50px" height="50px" viewBox="0 0 50 50" version="1.1" xmlns="http://www.w3.org/2000/svg" xmlns:xlink="http://www.w3.org/1999/xlink">
    <!-- Generator: Sketch 56.3 (81716) - https://sketch.com -->
    <title>earth</title>
    <desc>Created with Sketch.</desc>
    <g id="Symbols" stroke="none" stroke-width="1" fill="none" fill-rule="evenodd">
        <g id="logo">
            <g id="Logo">
                <g id="earth">
                    <rect id="Rectangle" fill="#000000" opacity="0" x="0" y="0" width="50" height="50"></rect>
                    <polygon id="Path" fill="#FFFFFF" points="36.7614802 10.5751434 36.8033883 10.9892926 36.3209987 11.1177821 36.2567989 12 36.8345965 12 37.60321 11.9047801 38 11.2978968 37.5782434 11.0868069 37.3473027 10.7449331 37.0004459 10.0221797 36.8345965 9 36.1827909 9.1709369 36 9.53116633 36 9.93728488 36.3138654 10.2137667"></polygon>
                    <path d="M35.9611692,10.7337734 L36,10.2035203 L35.5728611,10 L34.9754641,10.1529153 L34.5323946,10.9383939 L34.5323946,11.4477448 L35.049143,11.4477448 L35.9611692,10.7337734 Z M23.6647464,12.9856986 L23.5333191,13.359736 L22.8970913,13.359736 L22.8970913,13.7227723 L23.0484318,13.7227723 L23.0703364,13.9009901 L23.4606358,13.8646865 L23.7045729,13.6974698 L23.7682953,13.359736 L24.0839201,13.330033 L24.2083778,13.0462046 L23.9186402,12.980198 L23.6647464,12.9856986 L23.6647464,12.9856986 Z M22.0248915,13.6446645 L22,14 L22.4609914,13.9570957 L22.5087832,13.6006601 L22.2319892,13.359736 L22.0248915,13.6446645 Z" id="Shape" fill="#FFFFFF" fill-rule="nonzero"></path>
                    <path d="M49.9946196,24.7413924 C49.988126,24.0161967 49.9503869,23.2916176 49.8815074,22.5696711 C49.6542301,20.2338606 49.0971875,17.9420253 48.226983,15.7624766 C48.1632288,15.6030936 48.1046161,15.4416541 48.0367488,15.2843278 C46.830233,12.4424591 45.1083411,9.8483322 42.958007,7.63291764 C42.5895877,7.24856203 42.208923,6.87613386 41.8166011,6.51620868 C37.2219558,2.3195515 31.2226882,-0.00506335961 24.9998887,8.28091063e-06 C18.4753662,8.28091063e-06 12.5308012,2.51415414 8.07417707,6.62212125 C7.03578741,7.58071723 6.07955621,8.62464362 5.21552104,9.74294231 C1.83058028,14.107955 -0.00444819034,19.4758341 8.09727895e-06,24.99949 C8.09727895e-06,38.7856014 11.2156138,49.9999917 25.000917,49.9999917 C34.697725,49.9999917 43.1163642,44.4472952 47.2603871,36.3568108 C48.3878429,34.1580417 49.1798339,31.8029027 49.6100379,29.3696678 C49.8619698,27.9496171 49.9998963,26.4894636 49.9998963,24.99949 C50.0007894,24.9131148 49.995648,24.8277678 49.9946196,24.7413924 L49.9946196,24.7413924 Z M45.2891484,14.7496236 L45.4341378,14.5871558 C45.6243721,14.9563073 45.8022669,15.3316285 45.9719353,15.712091 L45.7354278,15.7028365 L45.2891484,15.7645331 L45.2891484,14.7496236 L45.2891484,14.7496236 Z M41.6767532,10.3876721 L41.6808664,9.27096311 C42.0736745,9.68741533 42.4520865,10.1162069 42.8140459,10.5604226 L42.3636533,11.2308593 L40.7893359,11.2164634 L40.6906197,10.8884431 L41.6767532,10.3876721 Z M11.5189604,7.61235212 L11.5189604,7.57019275 L12.0197393,7.57019275 L12.0629277,7.39847049 L12.8824776,7.39847049 L12.8824776,7.75631091 L12.6469984,8.0709637 L11.5179321,8.0709637 L11.5189604,7.61235212 L11.5189604,7.61235212 Z M12.3189728,8.7280328 C12.3189728,8.7280328 12.8197517,8.6426858 12.86294,8.6426858 C12.9061284,8.6426858 12.86294,9.14242848 12.86294,9.14242848 L11.7338738,9.21337958 L11.5189604,8.95631032 L12.3189728,8.7280328 Z M46.8819751,18.6519353 L45.0526409,18.6519353 L43.9379707,17.8221157 L42.7646878,17.9362544 L42.7646878,18.6519353 L42.3934738,18.6519353 L41.9924393,18.3660743 L39.9605313,17.8509074 L39.9605313,16.5347127 L37.3856843,16.7352268 L36.5877285,17.1640183 L35.5656048,17.1640183 L35.0648258,17.1136327 L33.8236755,17.8025784 L33.8236755,19.0992359 L31.2868753,20.9295691 L31.4976755,21.7110598 L32.0118223,21.7110598 L31.8771158,22.4555324 L31.5151565,22.5881802 L31.4956189,24.5336805 L33.6879407,27.0303373 L34.6421971,27.0303373 L34.6997816,26.8781523 L36.4149752,26.8781523 L36.9095844,26.420569 L37.8823501,26.420569 L38.4160344,26.9552731 L39.8659283,27.1054016 L39.6736374,29.0334212 L41.2829168,31.8745509 L40.4356029,33.4940873 L40.4931873,34.257069 L41.1605498,34.9223642 L41.1605498,36.7568106 L42.036656,37.9352162 L42.036656,39.4591229 L42.79348,39.4591229 C38.5815897,44.6303286 32.1712078,47.9424092 24.9988604,47.9424092 C12.3487933,47.9434375 2.05660328,37.6503835 2.05660328,24.99949 C2.05660328,21.8149158 2.71059795,18.7794417 3.88799404,16.0205742 L3.88799404,15.3048933 L4.70857233,14.3084927 C4.99340965,13.7707038 5.29881282,13.2462825 5.62478185,12.7352287 L5.6618004,13.151681 L4.70960061,14.3084927 C4.41238642,14.8675282 4.13862235,15.4387186 3.88902237,16.0205742 L3.88902237,17.3264861 L4.84225045,17.7850977 L4.84225045,19.6000068 L5.75640339,21.1599032 L6.49985962,21.274042 L6.59549095,20.7393379 L5.71835656,19.3861252 L5.54663155,18.0709587 L6.06077828,18.0709587 L6.27774823,19.4241714 L7.54563416,21.274042 L7.2186368,21.871471 L8.02481897,23.1043753 L10.0269065,23.6000048 L10.0269065,23.2760976 L10.8279471,23.3902363 L10.7518534,23.9619584 L11.3811691,24.0771254 L12.3529065,24.3424209 L13.7256783,25.9064304 L15.4789188,26.0390782 L15.6506438,27.4694117 L14.4506253,28.3084858 L14.3940691,29.585606 L14.2223441,30.3670966 L15.9581036,32.5398462 L16.0907535,33.2843188 C16.0907535,33.2843188 16.7200691,33.4550128 16.7971911,33.4550128 C16.8732848,33.4550128 18.2080098,34.4658092 18.2080098,34.4658092 L18.2080098,38.3927995 L18.6841098,38.5264756 L18.3601973,40.3382999 L19.1612379,41.4066798 L19.0131637,43.2020517 L20.0712777,45.062205 L21.4296535,46.2488368 L22.7952273,46.2735154 L22.9289055,45.8344411 L21.925291,44.9891973 L21.9828754,44.5696602 L22.1628268,44.0555217 L22.2008737,43.5311003 L21.5221999,43.5105348 L21.1797782,43.080715 L21.743283,42.5388129 L21.8193768,42.1295586 L21.1900611,41.9496101 L21.2270796,41.5691476 L22.1237517,41.433415 L23.4872689,40.7784025 L23.9448595,39.9393283 L25.3752158,38.108995 L25.050275,36.6776333 L25.4893564,35.91568 L26.8045438,35.9557828 L27.6899045,35.2544978 L27.9757702,32.4925454 L28.9577905,31.2452453 L29.1295155,30.4442174 L28.2338718,30.1573281 L27.642603,29.1876627 L25.6220062,29.1670972 L24.0199249,28.5563006 L23.9438312,27.4138847 L23.4091186,26.4791808 L21.9602529,26.457587 L21.123222,25.1434488 L20.3797658,24.780467 L20.3417189,25.181495 L18.9884847,25.2617007 L18.4928472,24.5717267 L17.0810001,24.2848374 L15.9180001,25.6287956 L14.0876376,25.3182559 L13.9549878,23.255532 L12.6192345,23.0272545 L13.1549754,22.0154298 L13.0017597,21.4344532 L11.2464626,22.6077174 L10.1420753,22.4730131 L9.74823894,21.6102886 L9.9888596,20.7208289 L10.5976094,19.5989786 L11.9991735,18.8894673 L14.7056421,18.8884391 L14.698444,19.7141456 L15.6712097,20.1665875 L15.5940877,18.7557913 L16.2953839,18.0503932 L17.7103158,17.1208307 L17.8069754,16.4668464 L19.2177941,14.9984667 L20.7180744,14.1676188 L20.5854245,14.0586214 L21.6013785,13.1023237 L21.9736208,13.2010383 L22.1443175,13.4149199 L22.5299276,12.9871567 L22.6245306,12.9449973 L22.201902,12.8853572 L21.7731035,12.7424267 L21.7731035,12.3311158 L22.0003564,12.1449977 L22.5011354,12.1449977 L22.7304448,12.2457688 L22.9289055,12.6467969 L23.1715827,12.6097789 L23.1715827,12.5748175 L23.2415067,12.5984679 L23.9448595,12.4904988 L24.044604,12.1470542 L24.4456384,12.2478254 L24.4456384,12.6200617 L24.0733962,12.8761027 L24.0744245,12.8761027 L24.128924,13.2843287 L25.4029797,13.6771306 L25.4060646,13.6925547 L25.6991282,13.6678761 L25.7186658,13.1156913 L24.7088816,12.6560514 L24.6512972,12.3907559 L25.4893564,12.1048948 L25.5263749,11.3028387 L24.6502688,10.7691629 L24.5926844,9.41697849 L23.3916376,10.0072095 L22.9535845,10.0072095 L23.0687534,8.97790416 L21.4337667,8.59230022 L20.7571495,9.10335393 L20.7571495,10.6622221 L19.5406783,11.047826 L19.0532671,12.0637638 L18.5247243,12.1491108 L18.5247243,10.8493685 L17.3812619,10.6910138 L16.8095306,10.3187775 L16.5791929,9.47661856 L18.6244687,8.27970397 L19.6249983,7.97533394 L19.7257711,8.6478272 L20.2831062,8.61903542 L20.3262945,8.28073224 L20.909337,8.19744179 L20.9196199,8.07918992 L20.6687163,7.97533394 L20.6111319,7.61749352 L21.3278524,7.55682513 L21.760764,7.10643976 L21.7844147,7.07353489 L21.7895562,7.07559148 L21.9211778,6.93985885 L23.4276278,6.74962761 L24.0939621,7.31518003 L22.3468913,8.24577083 L24.570062,8.77019216 L24.8579841,8.0267478 L25.8297215,8.0267478 L26.1731716,7.37893319 L25.4862715,7.20721093 L25.4862715,6.38767405 L23.3319965,5.43343288 L21.8450841,5.60515519 L21.0059965,6.04422953 L21.063581,7.11158117 L20.1864466,6.97790513 L20.0517401,6.38767405 L20.891856,5.62469244 L19.3668966,5.54859993 L18.9288436,5.6812477 L18.7386093,6.19538622 L19.3103405,6.2920443 L19.1961999,6.86376635 L18.2244625,6.92134988 L18.0722751,7.30181241 L16.6624847,7.34088696 C16.6624847,7.34088696 16.6234095,6.54088734 16.5668534,6.54088734 L17.6722689,6.52135009 L18.5123847,5.70078495 L18.0537658,5.47147916 L17.4439877,6.06376678 L16.4321469,6.00618325 L15.8223688,5.16710913 L14.5256907,5.16710913 L13.1724564,6.17790551 L14.4125784,6.17790551 L14.5256907,6.54088734 L14.2038348,6.84011601 L15.5766067,6.87816224 L15.7863786,7.37379183 L14.2408534,7.31620831 L14.1657879,6.9347175 L13.1940506,6.72494896 L12.6788755,6.43908791 L11.5220452,6.4483424 C15.4343973,3.5905523 20.1549216,2.05236373 24.9998887,2.05656222 C30.8015208,2.05656222 36.102374,4.2252073 40.1466524,7.78818751 L39.8741546,8.27559084 L38.8160406,8.68998657 L38.3697612,9.17430508 L38.4725905,9.73882923 L39.0186144,9.81492174 L39.3476684,10.6375434 L40.2895852,10.2581092 L40.4448576,11.3583657 L40.1610485,11.3583657 L39.3877718,11.2442269 L38.530175,11.3881857 L37.7003421,12.5604216 L36.5136914,12.7465398 L36.3419663,13.7624776 L36.8427453,13.8807295 L36.6977559,14.5336855 L35.5193315,14.2971817 L34.438595,14.5336855 L34.2092856,15.1352276 L34.396435,16.3979519 L35.0308921,16.6951239 L36.0951759,16.6889543 L36.8139531,16.6241728 L37.0329796,16.0524507 L38.1558762,14.5933255 L38.8952192,14.7444823 L39.623251,14.0863849 L39.7589858,14.6005235 L41.5502731,15.8087491 L41.3312466,16.1028363 L40.5240362,16.0596487 L40.8345808,16.4997513 L41.3312466,16.6087487 L41.9132607,16.3660753 L41.9009212,15.6647903 L42.1590229,15.5352273 L41.9513076,15.315176 L40.7564305,14.6488525 L40.4417727,13.7635059 L41.4351042,13.7635059 L41.7528469,14.0781587 L42.6083872,14.8154334 L42.6443774,15.7069497 L43.5307665,16.650908 L43.8608487,15.3573354 L44.4747399,15.0221171 L44.5899088,16.0802142 L45.1894039,16.7383116 L46.3853093,16.717746 C46.6166753,17.3131185 46.8243906,17.9187737 47.0063986,18.5367683 L46.8819751,18.6519353 Z M13.6362168,11.3583657 L14.2367402,11.0725046 L14.7796792,11.2020676 L14.5925298,11.931116 L14.0064024,12.1172342 L13.6362168,11.3583657 Z M16.8228985,13.0745602 L16.8228985,13.5465394 L15.4511549,13.5465394 L14.9370081,13.4036089 L15.0655448,13.0745602 L15.724681,12.8020668 L16.6254661,12.8020668 L16.6254661,13.0745602 L16.8228985,13.0745602 Z M17.4542707,13.7326576 L17.4542707,14.1902409 L17.1108207,14.4113204 L16.6830505,14.4904978 L16.6830505,13.7326576 L17.4542707,13.7326576 L17.4542707,13.7326576 Z M17.0676323,13.5465394 L17.0676323,13.0025808 L17.539619,13.4324006 L17.0676323,13.5465394 Z M17.2825457,14.6467959 L17.2825457,15.0920399 L16.95452,15.4210886 L16.2254599,15.4210886 L16.3396005,14.9213459 L16.6840788,14.8915259 L16.7550311,14.7198036 L17.2825457,14.6467959 Z M15.4665793,13.7326576 L16.2244316,13.7326576 L15.2526942,15.0910117 L14.8516597,14.8761017 L14.9380364,14.3043797 L15.4665793,13.7326576 Z M18.5699692,14.4904978 L18.5699692,14.9347135 L17.8409091,14.9347135 L17.6414201,14.6467959 L17.6414201,14.2334285 L17.6990045,14.2334285 L18.5699692,14.4904978 L18.5699692,14.4904978 Z M17.8964369,13.8797012 L18.1041522,13.6617065 L18.4548003,13.8797012 L18.1740761,14.1110636 L17.8964369,13.8797012 L17.8964369,13.8797012 Z M47.2542174,19.8097754 L47.3926689,19.7254566 C47.4500275,19.8550195 47.5113417,19.9845825 47.5667223,20.1162019 L47.2542174,19.8097754 Z" id="Shape" fill="#FFFFFF" fill-rule="nonzero"></path>
                    <path d="M4,15.163964 L4,16 C4.30451131,15.3177177 4.64035087,14.6522523 5,14 L4,15.163964 Z" id="Path" fill="#FFFFFF"></path>
                </g>
            </g>
        </g>
    </g>
</svg>